{"glyphs":{"0":{"ha":762,"x_min":69,"x_max":692,"o":"m 382 -18 q 154 114 238 -18 q 69 513 69 245 q 154 906 69 777 q 382 1035 238 1035 q 608 905 525 1035 q 692 513 692 776 q 608 114 692 245 q 382 -18 525 -18 m 382 74 q 527 180 471 74 q 582 513 582 286 q 527 839 582 735 q 382 943 471 943 q 235 839 292 943 q 179 513 179 735 q 235 180 179 286 q 382 74 292 74 z "},"1":{"ha":762,"x_min":123,"x_max":671,"o":"m 123 0 l 123 94 l 351 94 l 351 873 l 172 873 l 172 947 q 378 1017 300 970 l 464 1017 l 464 94 l 671 94 l 671 0 l 123 0 z "},"2":{"ha":762,"x_min":56,"x_max":692,"o":"m 62 0 l 62 68 q 419 441 307 281 q 532 733 532 601 q 484 883 532 823 q 339 943 437 943 q 221 908 275 943 q 122 822 166 873 l 56 886 q 187 994 117 953 q 351 1035 256 1035 q 565 954 487 1035 q 643 737 643 873 q 592 530 643 635 q 450 315 542 425 q 233 89 357 205 q 318 95 274 93 q 400 97 361 97 l 692 97 l 692 0 l 62 0 z "},"3":{"ha":762,"x_min":41,"x_max":684,"o":"m 364 -18 q 168 25 245 -18 q 41 121 91 68 l 100 195 q 206 113 145 149 q 357 77 267 77 q 510 130 450 77 q 570 273 570 183 q 538 385 570 337 q 436 458 507 432 q 248 485 366 485 l 248 574 q 416 600 353 574 q 506 672 479 627 q 533 775 533 718 q 486 897 533 851 q 355 945 438 943 q 239 915 293 943 q 142 842 184 886 l 79 916 q 204 1001 136 966 q 359 1036 272 1035 q 508 1006 443 1036 q 611 920 574 977 q 648 783 648 864 q 598 627 648 688 q 467 536 548 566 l 467 530 q 575 482 526 517 q 654 394 625 448 q 684 271 684 341 q 641 116 684 180 q 525 16 597 51 q 364 -18 453 -18 z "},"4":{"ha":762,"x_min":26,"x_max":718,"o":"m 147 374 l 472 374 l 472 704 q 475 794 472 742 q 481 885 477 847 l 473 885 q 434 811 455 848 q 393 737 414 774 l 147 374 m 718 374 l 718 283 l 579 283 l 579 0 l 472 0 l 472 283 l 26 283 l 26 357 l 458 1017 l 579 1017 l 579 374 l 718 374 z "},"5":{"ha":762,"x_min":39,"x_max":688,"o":"m 359 -18 q 221 1 281 -18 q 117 52 161 21 q 39 117 73 83 l 96 192 q 199 112 140 147 q 350 77 259 77 q 462 107 411 77 q 543 194 513 138 q 574 326 574 250 q 514 503 574 439 q 355 567 454 567 q 265 551 303 567 q 183 505 227 534 l 121 545 l 153 1017 l 639 1017 l 639 920 l 253 920 l 225 611 q 298 643 260 631 q 383 654 336 654 q 536 620 467 654 q 647 513 606 585 q 688 329 688 441 q 641 141 688 219 q 518 23 593 64 q 359 -18 444 -18 z "},"6":{"ha":762,"x_min":79,"x_max":701,"o":"m 415 72 q 542 138 491 72 q 593 310 593 205 q 547 480 593 416 q 403 545 500 545 q 297 514 354 545 q 189 410 241 483 q 257 160 199 248 q 415 72 314 72 m 684 933 l 619 863 q 545 920 588 899 q 456 940 501 940 q 324 899 384 940 q 227 763 264 859 q 186 505 189 668 q 297 596 234 563 q 421 629 359 629 q 626 549 550 629 q 701 310 701 469 q 662 139 701 212 q 557 23 623 65 q 415 -18 492 -18 q 241 38 317 -18 q 122 206 165 94 q 79 484 79 317 q 110 739 79 634 q 192 909 140 844 q 312 1005 245 975 q 452 1035 378 1035 q 585 1006 528 1035 q 684 933 642 977 z "},"7":{"ha":762,"x_min":68,"x_max":697,"o":"m 278 0 q 302 271 284 147 q 354 503 320 394 q 439 713 387 611 q 567 920 492 815 l 68 920 l 68 1017 l 697 1017 l 697 949 q 551 725 607 833 q 463 507 494 618 q 417 273 431 397 q 396 0 402 149 l 278 0 z "},"8":{"ha":762,"x_min":62,"x_max":699,"o":"m 385 -18 q 219 17 292 -18 q 104 113 146 52 q 62 253 62 174 q 90 376 62 321 q 161 471 118 431 q 252 536 205 511 l 252 542 q 155 637 196 579 q 114 775 114 695 q 150 909 114 851 q 248 1000 186 967 q 387 1032 310 1032 q 535 998 473 1032 q 631 902 597 963 q 664 764 664 842 q 642 663 664 711 q 588 578 620 615 q 526 517 556 541 l 526 510 q 610 449 571 484 q 674 363 650 413 q 699 243 699 313 q 659 111 699 170 q 549 17 620 52 q 385 -18 479 -18 m 454 547 q 566 758 566 642 q 518 891 566 836 q 385 946 471 946 q 266 899 313 946 q 218 775 218 851 q 252 670 218 712 q 340 600 286 628 q 454 547 394 571 m 386 66 q 534 118 478 66 q 590 245 590 169 q 551 362 590 317 q 449 438 513 407 q 313 500 386 470 q 207 398 248 459 q 165 261 165 337 q 194 161 165 205 q 273 92 223 117 q 386 66 323 66 z "},"9":{"ha":762,"x_min":62,"x_max":686,"o":"m 358 472 q 468 505 410 472 q 578 612 525 538 q 511 859 570 772 q 349 946 452 946 q 222 880 273 946 q 171 707 171 813 q 217 537 171 602 q 358 472 264 472 m 82 83 l 144 154 q 222 97 178 118 q 318 77 267 77 q 442 118 385 77 q 537 256 500 160 q 579 517 574 353 q 469 423 531 458 q 340 387 407 387 q 138 468 213 387 q 62 707 62 549 q 102 878 62 804 q 206 994 141 952 q 349 1035 271 1035 q 523 981 446 1035 q 643 821 599 928 q 686 555 686 715 q 656 290 686 399 q 574 113 626 180 q 457 13 523 45 q 321 -18 392 -18 q 182 11 241 -18 q 82 83 123 39 z "},"\n":{"ha":310,"x_min":0,"x_max":0,"o":""},"!":{"ha":436,"x_min":134,"x_max":304,"o":"m 179 300 l 164 901 l 161 1038 l 275 1038 l 272 901 l 257 300 l 179 300 m 218 -18 q 159 6 184 -18 q 134 71 134 31 q 159 138 134 113 q 218 163 184 163 q 278 138 252 163 q 304 71 304 113 q 278 6 304 31 q 218 -18 252 -18 z "},"\"":{"ha":635,"x_min":125,"x_max":507,"o":"m 150 685 l 127 935 l 125 1069 l 248 1069 l 243 935 l 222 685 l 150 685 m 410 685 l 387 935 l 385 1069 l 507 1069 l 504 935 l 481 685 l 410 685 z "},"#":{"ha":762,"x_min":56,"x_max":715,"o":"m 140 0 l 179 319 l 56 319 l 56 401 l 189 401 l 218 637 l 86 637 l 86 718 l 228 718 l 264 1006 l 339 1006 l 304 718 l 515 718 l 553 1006 l 628 1006 l 590 718 l 715 718 l 715 637 l 582 637 l 553 401 l 685 401 l 685 319 l 543 319 l 505 0 l 429 0 l 467 319 l 256 319 l 216 0 l 140 0 m 265 401 l 476 401 l 505 637 l 294 637 l 265 401 z "},"$":{"ha":762,"x_min":83,"x_max":669,"o":"m 647 890 l 586 822 q 502 888 543 865 q 395 911 460 911 q 277 867 321 911 q 233 755 233 824 q 265 659 233 696 q 346 594 296 621 q 451 542 395 568 q 557 480 507 515 q 638 390 606 445 q 669 252 669 336 q 605 70 669 141 q 431 -16 540 -1 l 431 -170 l 346 -170 l 346 -17 q 201 24 271 -9 q 83 103 132 58 l 138 180 q 245 107 185 138 q 378 77 305 77 q 513 122 467 77 q 558 243 558 167 q 527 352 558 309 q 446 424 495 394 q 340 481 396 454 q 235 541 285 508 q 154 624 185 574 q 122 750 122 673 q 184 921 122 852 q 346 1004 247 989 l 346 1158 l 431 1158 l 431 1006 q 555 966 505 998 q 647 890 606 934 z "},"%":{"ha":1270,"x_min":56,"x_max":1214,"o":"m 283 395 q 117 478 179 395 q 56 717 56 562 q 117 952 56 870 q 283 1035 179 1035 q 449 952 387 1035 q 511 717 511 870 q 449 478 511 562 q 283 395 387 395 m 283 467 q 385 530 346 467 q 424 717 424 594 q 385 902 424 840 q 283 964 346 964 q 182 902 221 964 q 143 717 143 840 q 182 530 143 594 q 283 467 221 467 m 313 -18 l 875 1035 l 954 1035 l 392 -18 l 313 -18 m 986 -18 q 820 65 882 -18 q 758 304 758 149 q 820 539 758 456 q 986 623 882 623 q 1151 539 1088 623 q 1214 304 1214 456 q 1151 65 1214 149 q 986 -18 1088 -18 m 986 53 q 1087 117 1048 53 q 1126 304 1126 180 q 1087 489 1126 427 q 986 550 1048 550 q 884 489 922 550 q 846 304 846 427 q 884 117 846 180 q 986 53 922 53 z "},"&":{"ha":929,"x_min":52,"x_max":907,"o":"m 161 268 q 189 165 161 210 q 264 97 217 121 q 370 72 312 72 q 475 96 424 72 q 571 161 526 121 q 423 310 494 229 q 298 478 352 391 q 201 382 241 432 q 161 268 161 332 m 285 800 q 298 709 285 756 q 335 612 311 661 q 424 679 382 645 q 489 750 465 712 q 514 836 514 789 q 491 917 514 882 q 414 953 468 953 q 320 909 355 953 q 285 800 285 865 m 907 77 l 876 -18 q 647 102 770 12 q 517 15 589 47 q 357 -18 446 -18 q 198 18 267 -18 q 91 117 130 54 q 52 262 52 180 q 80 383 52 330 q 155 478 109 436 q 253 557 201 520 q 204 681 222 619 q 186 799 186 743 q 215 919 186 865 q 295 1004 243 972 q 415 1035 347 1035 q 556 980 506 1035 q 607 839 607 924 q 573 720 607 772 q 486 622 539 667 q 376 536 433 578 q 497 376 427 454 q 640 236 566 298 q 789 545 739 363 l 893 545 q 820 350 864 442 q 715 178 777 257 q 907 77 821 102 z "},"'":{"ha":375,"x_min":125,"x_max":248,"o":"m 150 685 l 127 935 l 125 1069 l 248 1069 l 243 935 l 222 685 l 150 685 z "},"(":{"ha":460,"x_min":129,"x_max":403,"o":"m 334 -272 q 183 54 237 -117 q 129 431 129 225 q 183 806 129 635 q 334 1133 237 978 l 403 1100 q 269 781 313 952 q 224 431 224 609 q 269 81 224 252 q 403 -239 313 -91 l 334 -272 z "},")":{"ha":460,"x_min":57,"x_max":330,"o":"m 126 -272 l 57 -239 q 191 81 146 -91 q 236 431 236 252 q 191 781 236 609 q 57 1100 146 952 l 126 1133 q 276 806 222 978 q 330 431 330 635 q 276 54 330 225 q 126 -272 222 -117 z "},"*":{"ha":637,"x_min":93,"x_max":543,"o":"m 211 667 l 155 707 l 241 851 l 93 911 l 115 977 l 271 936 l 285 1103 l 354 1103 l 367 939 l 522 977 l 543 911 l 396 851 l 482 707 l 427 667 l 319 799 l 211 667 z "},"+":{"ha":762,"x_min":53,"x_max":710,"o":"m 335 163 l 335 468 l 53 468 l 53 553 l 335 553 l 335 859 l 428 859 l 428 553 l 710 553 l 710 468 l 428 468 l 428 163 l 335 163 z "},",":{"ha":375,"x_min":74,"x_max":294,"o":"m 103 -257 l 74 -191 q 171 -113 135 -161 q 208 -1 208 -65 q 200 -3 204 -3 q 192 -3 196 -3 q 132 19 157 -3 q 106 81 106 40 q 132 141 106 119 q 193 163 159 163 q 267 125 240 163 q 294 22 294 88 q 242 -146 294 -74 q 103 -257 189 -218 z "},"-":{"ha":476,"x_min":64,"x_max":415,"o":"m 64 343 l 64 432 l 415 432 l 415 343 l 64 343 z "},".":{"ha":375,"x_min":102,"x_max":272,"o":"m 186 -18 q 127 6 152 -18 q 102 71 102 31 q 127 138 102 113 q 186 163 152 163 q 247 138 222 163 q 272 71 272 113 q 247 6 272 31 q 186 -18 222 -18 z "},"/":{"ha":545,"x_min":16,"x_max":528,"o":"m 16 -248 l 443 1099 l 528 1099 l 98 -248 l 16 -248 z "},":":{"ha":375,"x_min":102,"x_max":272,"o":"m 186 549 q 127 573 152 549 q 102 637 102 598 q 127 704 102 679 q 186 729 152 729 q 247 704 222 729 q 272 637 272 679 q 247 573 272 598 q 186 549 222 549 m 186 -18 q 127 6 152 -18 q 102 71 102 31 q 127 138 102 113 q 186 163 152 163 q 247 138 222 163 q 272 71 272 113 q 247 6 272 31 q 186 -18 222 -18 z "},";":{"ha":375,"x_min":74,"x_max":294,"o":"m 186 549 q 127 573 152 549 q 102 637 102 598 q 127 704 102 679 q 186 729 152 729 q 247 704 222 729 q 272 637 272 679 q 247 573 272 598 q 186 549 222 549 m 103 -257 l 74 -191 q 171 -113 135 -161 q 208 -1 208 -65 q 200 -3 204 -3 q 192 -3 196 -3 q 132 19 157 -3 q 106 81 106 40 q 132 141 106 119 q 193 163 159 163 q 267 125 240 163 q 294 22 294 88 q 242 -146 294 -74 q 103 -257 189 -218 z "},"<":{"ha":762,"x_min":53,"x_max":710,"o":"m 710 208 l 53 467 l 53 559 l 710 819 l 710 720 l 375 596 l 168 517 l 168 511 l 375 433 l 710 309 l 710 208 z "},"=":{"ha":762,"x_min":53,"x_max":710,"o":"m 53 632 l 53 718 l 710 718 l 710 632 l 53 632 m 53 304 l 53 389 l 710 389 l 710 304 l 53 304 z "},">":{"ha":762,"x_min":53,"x_max":710,"o":"m 53 208 l 53 309 l 387 433 l 595 511 l 595 517 l 387 596 l 53 720 l 53 819 l 710 559 l 710 467 l 53 208 z "},"?":{"ha":648,"x_min":58,"x_max":574,"o":"m 249 300 q 257 430 239 374 q 309 534 276 487 q 378 623 342 581 q 438 709 413 665 q 463 804 463 753 q 424 914 463 867 q 307 961 385 961 q 208 937 255 961 q 123 871 160 913 l 58 930 q 171 1019 106 983 q 319 1055 236 1055 q 505 988 436 1055 q 574 811 574 922 q 549 700 574 749 q 487 606 524 650 q 416 516 451 562 q 361 418 382 471 q 349 300 340 366 l 249 300 m 302 -18 q 242 6 267 -18 q 216 71 216 31 q 242 138 216 113 q 302 163 267 163 q 362 138 337 163 q 387 71 387 113 q 362 6 387 31 q 302 -18 337 -18 z "},"@":{"ha":1299,"x_min":78,"x_max":1219,"o":"m 618 -236 q 344 -173 467 -236 q 150 14 222 -109 q 78 314 78 136 q 129 594 78 469 q 270 809 180 720 q 474 947 359 899 q 717 996 589 996 q 984 932 871 996 q 1158 753 1097 868 q 1219 488 1219 639 q 1192 311 1219 387 q 1120 183 1164 235 q 1022 105 1075 132 q 917 79 968 79 q 809 108 853 79 q 758 196 766 136 l 755 196 q 668 120 717 151 q 567 89 618 89 q 436 145 490 89 q 383 307 383 201 q 404 430 383 368 q 463 545 425 492 q 556 630 502 598 q 679 663 611 663 q 804 587 762 663 l 807 587 l 822 650 l 900 650 l 840 346 q 926 158 793 158 q 1024 197 975 158 q 1105 308 1072 235 q 1137 484 1137 380 q 1088 708 1137 610 q 943 862 1039 806 q 708 918 847 918 q 507 876 604 918 q 332 754 410 833 q 209 565 254 675 q 164 318 164 454 q 224 61 164 168 q 389 -102 284 -45 q 627 -158 493 -158 q 762 -138 699 -158 q 879 -87 826 -119 l 911 -157 q 618 -236 776 -236 m 587 170 q 659 192 622 170 q 736 264 696 214 l 782 515 q 735 567 759 553 q 677 582 711 582 q 593 557 631 582 q 530 493 556 532 q 489 406 503 453 q 475 314 475 359 q 507 203 475 236 q 587 170 540 170 z "},"[":{"ha":460,"x_min":147,"x_max":415,"o":"m 147 -235 l 147 1096 l 415 1096 l 415 1031 l 233 1031 l 233 -170 l 415 -170 l 415 -235 l 147 -235 z "},"\\":{"ha":545,"x_min":18,"x_max":529,"o":"m 446 -248 l 18 1099 l 102 1099 l 529 -248 l 446 -248 z "},"]":{"ha":460,"x_min":45,"x_max":313,"o":"m 45 -235 l 45 -170 l 228 -170 l 228 1031 l 45 1031 l 45 1096 l 313 1096 l 313 -235 l 45 -235 z "},"^":{"ha":762,"x_min":96,"x_max":667,"o":"m 96 441 l 330 1038 l 432 1038 l 667 441 l 567 441 l 461 725 l 385 930 l 378 930 l 301 725 l 195 441 l 96 441 z "},"_":{"ha":774,"x_min":18,"x_max":755,"o":"m 18 -192 l 18 -113 l 755 -113 l 755 -192 l 18 -192 z "},"`":{"ha":836,"x_min":207,"x_max":504,"o":"m 446 888 l 207 1124 l 289 1198 l 504 945 l 446 888 z "},"a":{"ha":777,"x_min":83,"x_max":661,"o":"m 301 -18 q 146 36 209 -18 q 83 193 83 91 q 195 381 83 316 q 549 473 307 446 q 536 570 549 524 q 488 646 523 616 q 389 675 454 675 q 263 648 321 675 q 161 591 204 622 l 115 671 q 240 736 164 703 q 407 770 316 770 q 554 731 498 770 q 635 624 610 692 q 661 465 661 555 l 661 0 l 568 0 l 558 92 l 554 92 q 436 14 500 46 q 301 -18 372 -18 m 332 74 q 440 100 389 74 q 549 178 491 127 l 549 397 q 338 355 416 382 q 227 290 260 329 q 193 200 193 252 q 234 103 193 132 q 332 74 275 74 z "},"b":{"ha":852,"x_min":132,"x_max":781,"o":"m 453 -18 q 343 7 401 -18 q 236 78 286 32 l 233 78 l 221 0 l 132 0 l 132 1105 l 244 1105 l 244 799 l 239 661 q 354 738 292 706 q 481 770 416 770 q 704 665 627 770 q 781 387 781 560 q 735 169 781 259 q 614 30 689 78 q 453 -18 540 -18 m 436 78 q 552 115 501 78 q 633 222 604 153 q 663 386 663 291 q 615 593 663 513 q 454 673 567 673 q 244 566 359 673 l 244 160 q 347 96 296 114 q 436 78 397 78 z "},"c":{"ha":703,"x_min":74,"x_max":664,"o":"m 422 -18 q 244 28 323 -18 q 120 162 165 75 q 74 374 74 250 q 123 588 74 499 q 254 723 173 676 q 431 770 336 770 q 557 743 505 770 q 650 679 610 715 l 590 604 q 519 654 557 635 q 435 673 481 673 q 310 636 365 673 q 222 531 254 598 q 191 374 191 463 q 221 218 191 285 q 305 114 251 151 q 432 77 359 77 q 532 99 485 77 q 614 153 578 121 l 664 78 q 552 7 614 33 q 422 -18 491 -18 z "},"d":{"ha":854,"x_min":75,"x_max":724,"o":"m 385 -18 q 159 84 243 -18 q 75 374 75 186 q 121 584 75 495 q 241 721 166 673 q 401 770 315 770 q 517 746 468 770 q 616 681 566 722 l 611 811 l 611 1105 l 724 1105 l 724 0 l 631 0 l 619 90 l 616 90 q 513 14 572 45 q 385 -18 454 -18 m 408 78 q 512 105 463 78 q 611 184 561 132 l 611 590 q 514 654 560 635 q 419 673 469 673 q 304 635 355 673 q 223 530 253 597 q 193 375 193 463 q 249 157 193 237 q 408 78 305 78 z "},"e":{"ha":762,"x_min":74,"x_max":704,"o":"m 429 -18 q 250 28 330 -18 q 122 163 170 75 q 74 374 74 251 q 122 585 74 496 q 246 722 170 673 q 408 770 322 770 q 626 675 549 770 q 704 418 704 581 q 703 381 704 399 q 699 350 702 363 l 186 350 q 261 149 191 225 q 443 72 330 72 q 545 89 498 72 q 633 134 591 105 l 675 58 q 567 4 626 27 q 429 -18 507 -18 m 184 432 l 604 432 q 553 615 604 553 q 410 677 501 677 q 306 649 354 677 q 225 565 257 620 q 184 432 193 510 z "},"f":{"ha":440,"x_min":46,"x_max":482,"o":"m 482 1099 l 457 1011 q 371 1032 413 1032 q 262 879 262 1032 l 262 750 l 424 750 l 424 657 l 262 657 l 262 0 l 149 0 l 149 657 l 46 657 l 46 743 l 149 750 l 149 880 q 201 1059 149 994 q 361 1124 254 1124 q 425 1117 393 1124 q 482 1099 456 1110 z "},"g":{"ha":774,"x_min":72,"x_max":755,"o":"m 382 -349 q 158 -296 243 -349 q 72 -146 72 -243 q 102 -53 72 -98 q 183 26 132 -8 l 183 32 q 135 80 154 50 q 115 155 115 111 q 143 238 115 202 q 199 294 170 273 l 199 300 q 132 382 162 329 q 102 501 102 435 q 139 643 102 583 q 240 736 177 703 q 379 770 303 770 q 437 764 410 770 q 484 750 464 758 l 743 750 l 743 663 l 585 663 q 631 593 613 635 q 650 500 650 551 q 614 361 650 420 q 516 270 578 302 q 379 237 455 237 q 321 244 351 237 q 264 265 290 252 q 228 225 243 248 q 214 171 214 203 q 242 110 214 134 q 347 86 270 86 l 497 86 q 691 44 627 86 q 755 -92 755 1 q 710 -218 755 -160 q 580 -313 664 -277 q 382 -349 496 -349 m 379 315 q 497 366 447 315 q 547 501 547 417 q 497 636 547 587 q 379 685 448 685 q 260 636 309 685 q 211 501 211 588 q 261 366 211 417 q 379 315 311 315 m 397 -269 q 528 -246 472 -269 q 614 -185 583 -222 q 644 -109 644 -149 q 605 -31 644 -53 q 488 -9 565 -9 l 350 -9 q 306 -6 332 -9 q 254 3 280 -3 q 192 -62 212 -27 q 172 -132 172 -98 q 232 -232 172 -195 q 397 -269 291 -269 z "},"h":{"ha":836,"x_min":132,"x_max":721,"o":"m 132 0 l 132 1105 l 244 1105 l 244 799 l 240 642 q 354 732 294 694 q 492 770 414 770 q 665 695 610 770 q 721 476 721 620 l 721 0 l 607 0 l 607 463 q 572 621 607 571 q 458 671 536 671 q 351 640 399 671 q 244 549 302 609 l 244 0 l 132 0 z "},"i":{"ha":374,"x_min":107,"x_max":271,"o":"m 132 0 l 132 750 l 244 750 l 244 0 l 132 0 m 189 911 q 130 932 153 911 q 107 987 107 954 q 130 1045 107 1024 q 189 1065 153 1065 q 247 1045 222 1065 q 271 987 271 1024 q 247 932 271 954 q 189 911 222 911 z "},"j":{"ha":375,"x_min":-58,"x_max":271,"o":"m 49 -340 q -12 -335 16 -340 q -58 -321 -39 -329 l -36 -235 q -2 -244 -22 -239 q 37 -249 17 -249 q 114 -208 96 -249 q 132 -97 132 -166 l 132 750 l 244 750 l 244 -98 q 199 -276 244 -212 q 49 -340 154 -340 m 189 911 q 132 932 155 911 q 109 987 109 954 q 132 1045 109 1024 q 189 1065 155 1065 q 247 1045 223 1065 q 271 987 271 1024 q 247 932 271 954 q 189 911 223 911 z "},"k":{"ha":754,"x_min":132,"x_max":739,"o":"m 132 0 l 132 1105 l 241 1105 l 241 340 l 245 340 l 579 750 l 704 750 l 454 450 l 739 0 l 615 0 l 389 371 l 241 199 l 241 0 l 132 0 z "},"l":{"ha":387,"x_min":132,"x_max":322,"o":"m 254 -18 q 161 22 190 -18 q 132 138 132 62 l 132 1105 l 244 1105 l 244 129 q 254 89 244 101 q 279 77 264 77 q 290 77 284 77 q 306 79 295 77 l 322 -8 q 293 -15 309 -12 q 254 -18 278 -18 z "},"m":{"ha":1276,"x_min":132,"x_max":1157,"o":"m 132 0 l 132 750 l 224 750 l 235 639 l 239 639 q 347 731 288 693 q 472 770 407 770 q 608 730 559 770 q 679 624 657 690 q 801 729 740 688 q 929 770 861 770 q 1100 695 1044 770 q 1157 476 1157 620 l 1157 0 l 1043 0 l 1043 463 q 1008 621 1043 571 q 897 671 972 671 q 700 549 808 671 l 700 0 l 587 0 l 587 463 q 552 621 587 571 q 440 671 516 671 q 244 549 350 671 l 244 0 l 132 0 z "},"n":{"ha":840,"x_min":132,"x_max":721,"o":"m 132 0 l 132 750 l 224 750 l 235 640 l 239 640 q 354 731 293 693 q 492 770 414 770 q 665 695 610 770 q 721 476 721 620 l 721 0 l 607 0 l 607 463 q 572 621 607 571 q 458 671 536 671 q 351 640 399 671 q 244 549 302 609 l 244 0 l 132 0 z "},"o":{"ha":836,"x_min":74,"x_max":764,"o":"m 418 -18 q 248 28 326 -18 q 122 162 170 75 q 74 374 74 250 q 122 588 74 499 q 248 723 170 676 q 418 770 326 770 q 589 723 510 770 q 715 588 667 676 q 764 374 764 499 q 715 162 764 250 q 589 28 667 75 q 418 -18 510 -18 m 418 77 q 537 114 486 77 q 618 218 589 151 q 647 374 647 285 q 618 531 647 463 q 537 636 589 598 q 418 673 486 673 q 299 636 351 673 q 219 531 248 598 q 191 374 191 463 q 219 218 191 285 q 299 114 248 151 q 418 77 351 77 z "},"p":{"ha":854,"x_min":132,"x_max":781,"o":"m 132 -322 l 132 750 l 224 750 l 235 663 l 239 663 q 353 737 291 704 q 481 770 415 770 q 704 665 627 770 q 781 387 781 560 q 735 169 781 259 q 614 30 689 78 q 453 -18 540 -18 q 348 5 401 -18 q 241 69 295 28 l 244 -62 l 244 -322 l 132 -322 m 436 78 q 552 115 501 78 q 633 222 604 153 q 663 386 663 291 q 615 593 663 513 q 454 673 567 673 q 354 646 406 673 q 244 566 302 618 l 244 160 q 348 96 298 114 q 436 78 397 78 z "},"q":{"ha":854,"x_min":75,"x_max":724,"o":"m 611 -322 l 611 -50 l 616 90 q 511 13 570 45 q 385 -18 452 -18 q 159 84 243 -18 q 75 374 75 186 q 121 584 75 495 q 241 721 166 673 q 401 770 315 770 q 518 746 468 770 q 618 679 568 722 l 623 679 l 633 750 l 724 750 l 724 -322 l 611 -322 m 408 78 q 512 105 463 78 q 611 184 561 132 l 611 590 q 514 654 560 635 q 419 673 469 673 q 304 635 355 673 q 223 530 253 597 q 193 375 193 463 q 249 157 193 237 q 408 78 305 78 z "},"r":{"ha":526,"x_min":132,"x_max":530,"o":"m 132 0 l 132 750 l 224 750 l 235 612 l 239 612 q 333 727 277 684 q 452 770 388 770 q 530 753 497 770 l 509 654 q 474 664 490 661 q 437 667 459 667 q 336 627 389 667 q 244 489 283 587 l 244 0 l 132 0 z "},"s":{"ha":643,"x_min":45,"x_max":591,"o":"m 323 -18 q 171 11 243 -18 q 45 85 98 41 l 102 161 q 204 96 151 121 q 328 71 257 71 q 445 107 406 71 q 484 196 484 144 q 457 263 484 236 q 391 309 431 290 q 309 343 351 328 q 203 389 255 363 q 116 455 151 414 q 82 559 82 496 q 149 708 82 647 q 336 770 215 770 q 462 745 403 770 q 564 686 522 720 l 510 612 q 429 660 471 641 q 336 679 387 679 q 226 645 261 679 q 191 566 191 611 q 215 504 191 528 q 278 463 239 479 q 359 431 317 446 q 468 383 414 409 q 556 315 522 357 q 591 201 591 273 q 561 92 591 142 q 470 12 530 42 q 323 -18 410 -18 z "},"t":{"ha":513,"x_min":39,"x_max":493,"o":"m 359 -18 q 197 49 242 -18 q 153 227 153 116 l 153 657 l 39 657 l 39 743 l 157 750 l 170 962 l 265 962 l 265 750 l 472 750 l 472 657 l 265 657 l 265 222 q 290 114 265 153 q 383 75 315 75 q 428 81 404 75 q 471 94 452 87 l 493 9 q 427 -9 462 -1 q 359 -18 391 -18 z "},"u":{"ha":836,"x_min":121,"x_max":705,"o":"m 349 -18 q 176 56 231 -18 q 121 273 121 130 l 121 750 l 233 750 l 233 288 q 268 130 233 179 q 382 81 302 81 q 489 112 441 81 q 593 212 537 144 l 593 750 l 705 750 l 705 0 l 612 0 l 603 119 l 599 119 q 486 20 545 58 q 349 -18 427 -18 z "},"v":{"ha":710,"x_min":18,"x_max":692,"o":"m 292 0 l 18 750 l 136 750 l 285 314 q 319 202 301 258 q 355 93 338 146 l 361 93 q 396 202 378 146 q 432 314 415 258 l 581 750 l 692 750 l 424 0 l 292 0 z "},"w":{"ha":1099,"x_min":37,"x_max":1063,"o":"m 249 0 l 37 750 l 153 750 l 271 304 q 294 200 283 251 q 317 97 305 149 l 322 97 q 348 200 336 149 q 375 304 360 251 l 496 750 l 610 750 l 732 304 q 758 200 745 251 q 785 97 771 149 l 790 97 q 814 200 803 149 q 839 304 825 251 l 954 750 l 1063 750 l 857 0 l 720 0 l 606 418 q 578 525 590 472 q 553 635 566 577 l 546 635 q 521 524 533 577 q 492 416 509 470 l 382 0 l 249 0 z "},"x":{"ha":675,"x_min":21,"x_max":654,"o":"m 21 0 l 269 392 l 40 750 l 163 750 l 268 579 q 305 517 286 548 q 345 454 325 486 l 350 454 q 385 517 368 486 q 419 579 401 548 l 518 750 l 635 750 l 407 380 l 654 0 l 530 0 l 415 182 q 375 251 395 216 q 334 318 354 285 l 326 318 q 287 251 306 285 q 248 182 267 216 l 140 0 l 21 0 z "},"y":{"ha":711,"x_min":18,"x_max":693,"o":"m 134 -328 q 47 -313 84 -328 l 71 -221 q 98 -229 82 -225 q 129 -232 113 -232 q 237 -184 194 -232 q 304 -62 279 -136 l 321 -4 l 18 750 l 136 750 l 296 321 q 333 216 313 272 q 371 110 352 161 l 378 110 q 410 216 393 161 q 441 321 426 272 l 582 750 l 693 750 l 407 -69 q 346 -200 382 -141 q 258 -293 310 -258 q 134 -328 206 -328 z "},"z":{"ha":650,"x_min":47,"x_max":610,"o":"m 47 0 l 47 61 l 453 657 l 92 657 l 92 750 l 597 750 l 597 690 l 191 93 l 610 93 l 610 0 l 47 0 z "},"{":{"ha":460,"x_min":53,"x_max":415,"o":"m 351 -235 q 217 -193 261 -235 q 172 -32 172 -151 q 179 123 172 54 q 186 271 186 193 q 159 355 186 317 q 53 395 132 393 l 53 467 q 135 485 106 467 q 175 530 163 503 q 186 586 186 557 q 179 737 186 667 q 172 892 172 807 q 217 1054 172 1011 q 351 1096 261 1096 l 415 1096 l 415 1031 l 374 1031 q 287 996 309 1031 q 265 885 265 961 q 269 747 265 813 q 273 600 273 680 q 254 487 273 527 q 184 433 234 447 l 184 428 q 254 373 234 413 q 273 260 273 332 q 269 114 273 180 q 265 -24 265 47 q 287 -135 265 -100 q 374 -170 309 -170 l 415 -170 l 415 -235 l 351 -235 z "},"|":{"ha":368,"x_min":143,"x_max":224,"o":"m 143 -387 l 143 1161 l 224 1161 l 224 -387 l 143 -387 z "},"}":{"ha":460,"x_min":45,"x_max":407,"o":"m 45 -235 l 45 -170 l 86 -170 q 173 -135 151 -170 q 195 -24 195 -100 q 190 114 195 47 q 186 260 186 180 q 206 373 186 332 q 275 428 226 413 l 275 433 q 206 487 226 447 q 186 600 186 527 q 190 747 186 680 q 195 885 195 813 q 173 996 195 961 q 86 1031 151 1031 l 45 1031 l 45 1096 l 109 1096 q 243 1054 199 1096 q 288 892 288 1011 q 280 737 288 807 q 273 586 273 667 q 285 530 273 557 q 325 485 296 503 q 407 467 354 467 l 407 395 q 300 355 328 393 q 273 271 273 317 q 280 123 273 193 q 288 -32 288 54 q 243 -193 288 -151 q 109 -235 199 -235 l 45 -235 z "},"~":{"ha":762,"x_min":57,"x_max":704,"o":"m 518 401 q 435 421 472 401 q 367 468 399 441 q 305 514 335 494 q 241 534 275 534 q 179 512 208 534 q 122 439 149 490 l 57 484 q 146 588 98 555 q 244 621 195 621 q 327 601 290 621 q 395 554 363 581 q 458 508 427 528 q 521 488 488 488 q 584 509 554 488 q 640 582 613 531 l 704 536 q 616 434 665 467 q 518 401 567 401 z "},"·":{"ha":771,"x_min":293,"x_max":464,"o":"m 378 412 q 319 437 345 412 q 293 501 293 463 q 319 568 293 543 q 378 593 345 593 q 438 568 413 593 q 464 501 464 543 q 438 437 464 463 q 378 412 413 412 z "},"—":{"ha":1239,"x_min":64,"x_max":1175,"o":"m 64 349 l 64 429 l 1175 429 l 1175 349 l 64 349 z "},"…":{"ha":1389,"x_min":144,"x_max":1244,"o":"m 144 528 q 170 590 144 564 q 232 615 195 615 q 294 590 269 615 q 319 528 319 564 q 294 466 319 491 q 232 440 269 440 q 170 466 195 440 q 144 528 144 491 m 607 528 q 632 590 607 564 q 694 615 658 615 q 756 590 731 615 q 782 528 782 564 q 756 466 782 491 q 694 440 731 440 q 632 466 658 440 q 607 528 607 491 m 1069 528 q 1095 590 1069 564 q 1157 615 1120 615 q 1219 590 1194 615 q 1244 528 1244 564 q 1219 466 1244 491 q 1157 440 1194 440 q 1095 466 1120 440 q 1069 528 1069 491 z "},"、":{"ha":1389,"x_min":75,"x_max":468,"o":"m 468 -3 l 383 -74 q 232 93 315 9 q 75 235 149 176 l 155 307 q 261 214 205 267 q 370 106 317 162 q 468 -3 424 50 z "},"。":{"ha":1389,"x_min":61,"x_max":479,"o":"m 269 338 q 375 310 328 338 q 451 234 423 281 q 479 129 479 186 q 451 23 479 71 q 375 -53 423 -24 q 269 -81 328 -81 q 165 -53 212 -81 q 90 23 118 -24 q 61 129 61 71 q 90 234 61 186 q 165 310 118 281 q 269 338 212 338 m 269 -16 q 372 26 330 -16 q 414 129 414 68 q 372 230 414 187 q 269 272 330 272 q 169 230 211 272 q 126 129 126 187 q 169 26 126 68 q 269 -16 211 -16 z "},"《":{"ha":1389,"x_min":739,"x_max":1336,"o":"m 815 528 l 1121 -94 l 1053 -118 l 739 528 l 1053 1174 l 1121 1150 l 815 528 m 1031 528 l 1336 -94 l 1268 -118 l 954 528 l 1268 1174 l 1336 1150 l 1031 528 z "},"》":{"ha":1389,"x_min":53,"x_max":650,"o":"m 336 -118 l 268 -94 l 574 528 l 268 1150 l 336 1174 l 650 528 l 336 -118 m 121 -118 l 53 -94 l 358 528 l 53 1150 l 121 1174 l 435 528 l 121 -118 z "},"【":{"ha":1389,"x_min":926,"x_max":1340,"o":"m 926 1174 l 1340 1174 l 1340 1166 q 1202 1007 1265 1103 q 1103 789 1140 911 q 1065 528 1065 668 q 1103 266 1065 387 q 1202 48 1140 144 q 1340 -111 1265 -47 l 1340 -118 l 926 -118 l 926 1174 z "},"】":{"ha":1389,"x_min":49,"x_max":463,"o":"m 463 1174 l 463 -118 l 49 -118 l 49 -111 q 186 48 124 -47 q 286 266 249 144 q 323 528 323 387 q 286 789 323 668 q 186 1007 249 911 q 49 1166 124 1103 l 49 1174 l 463 1174 z "},"向":{"ha":1389,"x_min":143,"x_max":1253,"o":"m 879 555 l 510 555 l 510 268 l 879 268 l 879 555 m 965 184 l 510 184 l 510 85 l 425 85 l 425 639 l 965 639 l 965 184 m 1253 921 l 1253 24 q 1239 -51 1253 -24 q 1192 -89 1226 -77 q 1091 -102 1155 -99 q 932 -104 1027 -104 q 918 -56 928 -84 q 897 -9 909 -28 q 1040 -13 975 -13 q 1126 -11 1105 -12 q 1154 -3 1146 -11 q 1161 24 1161 4 l 1161 831 l 235 831 l 235 -104 l 143 -104 l 143 921 l 525 921 q 575 1044 550 977 q 615 1164 600 1112 l 728 1145 q 677 1030 704 1089 q 625 921 651 971 l 1253 921 z "},"方":{"ha":1389,"x_min":71,"x_max":1292,"o":"m 806 960 l 715 920 q 673 1021 701 961 q 618 1132 645 1082 l 707 1166 q 763 1059 734 1117 q 806 960 792 1002 m 1292 827 l 585 827 q 564 597 578 712 l 1154 597 q 1153 579 1154 597 q 1152 551 1152 562 q 1122 233 1137 354 q 1087 46 1107 111 q 1040 -46 1068 -19 q 992 -79 1019 -70 q 928 -90 966 -87 q 830 -91 892 -92 q 697 -85 767 -89 q 686 -38 695 -64 q 665 5 677 -13 q 805 -4 739 -2 q 897 -5 870 -5 q 935 -2 920 -5 q 962 11 950 1 q 999 84 983 29 q 1028 242 1015 139 q 1054 509 1042 346 l 550 509 q 481 269 528 385 q 352 57 435 154 q 138 -109 269 -39 q 108 -70 127 -91 q 71 -36 89 -49 q 251 91 179 17 q 367 252 323 164 q 434 436 411 340 q 468 631 458 532 q 484 827 478 730 l 103 827 l 103 917 l 1292 917 l 1292 827 z "},"纹":{"ha":1389,"x_min":57,"x_max":1348,"o":"m 227 379 l 514 433 q 513 392 513 416 q 515 355 513 369 q 304 313 384 330 q 183 286 225 296 q 121 269 140 275 q 92 256 102 262 q 82 295 91 270 q 65 338 74 321 q 110 365 85 342 q 165 427 135 389 q 228 502 185 447 q 321 631 271 557 q 182 611 229 618 q 115 599 135 604 q 86 589 96 594 q 75 631 84 604 q 57 676 65 659 q 93 704 75 681 q 135 762 112 726 q 168 820 146 780 q 219 915 191 860 q 275 1032 247 969 q 325 1157 303 1095 l 410 1118 q 303 892 363 1006 q 179 689 243 779 l 372 710 q 411 774 392 742 q 447 840 431 807 l 521 796 q 380 576 455 684 q 227 379 304 469 m 528 192 l 538 115 q 298 49 416 82 q 86 -9 180 16 l 68 78 q 276 128 153 96 q 528 192 399 159 m 787 1131 l 864 1161 q 923 1081 893 1124 q 977 997 952 1038 q 1015 924 1002 956 l 933 889 q 897 963 920 921 q 845 1049 873 1005 q 787 1131 816 1093 m 1095 800 l 729 800 q 804 525 758 652 q 920 297 850 398 q 1028 518 986 394 q 1095 800 1070 643 m 1324 800 l 1186 800 q 1107 474 1158 616 q 977 224 1057 332 q 1139 82 1047 142 q 1348 -14 1231 22 q 1315 -51 1332 -28 q 1287 -92 1299 -73 q 1080 10 1172 -52 q 917 154 989 72 q 507 -100 768 -7 q 480 -62 500 -85 q 446 -22 461 -38 q 863 224 718 60 q 730 481 783 337 q 642 800 677 626 l 528 800 l 528 889 l 1324 889 l 1324 800 z "},"路":{"ha":1389,"x_min":60,"x_max":1343,"o":"m 747 393 l 1178 393 q 1064 473 1118 429 q 966 566 1011 517 q 747 393 862 460 m 783 31 l 1146 31 l 1146 313 l 783 313 l 783 31 m 586 476 l 586 403 q 753 498 671 440 q 908 631 836 555 q 774 833 827 730 q 639 663 710 736 q 609 689 629 673 q 574 717 590 705 l 574 684 l 410 684 l 410 476 l 586 476 m 212 1019 l 212 764 l 488 764 l 488 1019 l 212 1019 m 1112 936 l 832 936 l 818 909 q 881 800 845 856 q 962 690 917 745 q 1047 807 1008 745 q 1112 936 1086 869 m 1169 1021 l 1226 994 q 1140 794 1193 887 q 1022 625 1088 702 q 1168 505 1088 560 q 1343 412 1249 450 q 1312 376 1329 399 q 1286 336 1295 353 q 1235 359 1260 349 l 1235 -98 l 1146 -98 l 1146 -52 l 783 -52 l 783 -103 l 697 -103 l 697 364 q 651 341 674 353 q 604 319 628 330 q 581 356 597 336 q 551 389 565 376 l 561 393 l 410 393 l 410 135 l 596 178 l 606 94 q 324 26 464 60 q 77 -35 184 -7 l 60 54 l 132 71 l 132 547 l 211 547 l 211 87 l 325 114 l 325 684 l 131 684 l 131 1101 l 574 1101 l 574 729 q 723 921 657 808 q 829 1161 789 1034 l 917 1139 q 895 1078 906 1109 q 871 1018 884 1047 l 1152 1018 l 1169 1021 z "},"（":{"ha":1389,"x_min":974,"x_max":1325,"o":"m 1250 -132 q 1048 163 1123 -2 q 974 528 974 328 q 1048 892 974 728 q 1250 1187 1123 1057 l 1325 1147 q 1133 866 1202 1021 q 1064 528 1064 711 q 1133 190 1064 345 q 1325 -92 1202 35 l 1250 -132 z "},"）":{"ha":1389,"x_min":64,"x_max":415,"o":"m 139 1187 q 340 892 266 1057 q 415 528 415 728 q 340 163 415 328 q 139 -132 266 -2 l 64 -92 q 256 190 186 35 q 325 528 325 345 q 256 866 325 711 q 64 1147 186 1021 l 139 1187 z "},"，":{"ha":1389,"x_min":180,"x_max":443,"o":"m 210 -140 l 180 -75 q 306 12 262 -39 q 355 138 351 64 q 342 136 349 136 q 329 135 336 135 q 259 159 288 135 q 231 229 231 182 q 261 300 231 276 q 330 325 291 325 q 414 283 386 325 q 443 171 443 241 q 379 -22 443 58 q 210 -140 315 -103 z "},"￥":{"ha":1389,"x_min":265,"x_max":1122,"o":"m 637 0 l 637 239 l 361 239 l 361 307 l 637 307 l 637 410 l 361 410 l 361 478 l 603 478 l 265 997 l 399 997 l 570 711 q 613 636 594 669 q 650 571 631 603 q 692 498 669 539 l 699 498 q 742 571 723 539 q 779 636 760 604 q 821 711 798 669 l 991 997 l 1122 997 l 786 478 l 1026 478 l 1026 410 l 751 410 l 751 307 l 1026 307 l 1026 239 l 751 239 l 751 0 l 637 0 z "},"！":{"ha":1389,"x_min":241,"x_max":453,"o":"m 307 332 l 275 882 l 272 1039 l 422 1039 l 419 882 l 389 332 l 307 332 m 347 -5 q 273 22 304 -5 q 241 98 241 50 q 273 174 241 146 q 347 201 304 201 q 421 174 390 201 q 453 98 453 146 q 421 22 453 50 q 347 -5 390 -5 z "},"：":{"ha":1389,"x_min":248,"x_max":447,"o":"m 347 679 q 278 705 308 679 q 248 778 248 732 q 278 850 248 823 q 347 878 308 878 q 417 850 387 878 q 447 778 447 823 q 417 705 447 732 q 347 679 387 679 m 347 -4 q 278 22 308 -4 q 248 94 248 49 q 278 168 248 141 q 347 195 308 195 q 417 168 387 195 q 447 94 447 141 q 417 22 447 49 q 347 -4 387 -4 z "},"；":{"ha":1389,"x_min":205,"x_max":469,"o":"m 347 679 q 278 705 308 679 q 248 778 248 732 q 278 850 248 823 q 347 878 308 878 q 417 850 387 878 q 447 778 447 823 q 417 705 447 732 q 347 679 387 679 m 235 -220 l 205 -154 q 334 -57 290 -115 q 380 85 378 1 q 367 82 374 83 q 354 82 360 82 q 284 106 313 82 q 256 176 256 130 q 286 248 256 224 q 355 272 316 272 q 440 229 411 272 q 469 111 469 185 q 406 -94 469 -9 q 235 -220 342 -178 z "},"？":{"ha":1389,"x_min":46,"x_max":639,"o":"m 277 332 q 284 455 262 402 q 345 550 305 508 q 426 630 384 592 q 497 707 467 667 q 526 796 526 747 q 483 915 526 867 q 347 964 440 964 q 227 933 285 964 q 114 844 169 903 l 46 907 q 184 1015 111 972 q 358 1057 257 1057 q 563 988 488 1057 q 639 806 639 919 q 617 711 639 752 q 563 635 596 669 q 494 568 530 600 q 428 502 458 536 q 383 426 398 467 q 378 332 368 385 l 277 332 m 224 98 q 255 174 224 146 q 329 201 286 201 q 403 174 372 201 q 435 98 435 146 q 403 23 435 51 q 329 -5 372 -5 q 255 23 286 -5 q 224 98 224 51 z "},"’":{"ha":1389,"x_min":68,"x_max":267,"o":"m 97 785 l 69 833 q 159 909 125 861 q 193 1006 193 958 q 153 993 178 993 q 91 1019 114 993 q 68 1080 68 1044 q 91 1140 68 1112 q 160 1169 114 1169 q 235 1133 203 1169 q 267 1040 267 1097 q 242 928 267 979 q 179 841 218 878 q 97 785 140 804 z "},"“":{"ha":1389,"x_min":872,"x_max":1335,"o":"m 1043 1174 l 1069 1124 q 981 1047 1015 1095 q 946 951 947 1000 q 986 964 961 964 q 1048 938 1025 964 q 1071 876 1071 913 q 1048 817 1071 845 q 979 789 1025 789 q 904 825 935 789 q 872 917 872 861 q 897 1028 872 978 q 960 1116 921 1079 q 1043 1174 1000 1154 m 1305 1174 l 1333 1124 q 1243 1047 1277 1095 q 1210 951 1210 1000 q 1250 964 1225 964 q 1312 938 1289 964 q 1335 876 1335 913 q 1312 817 1335 845 q 1243 789 1289 789 q 1167 825 1199 789 q 1136 917 1136 861 q 1160 1028 1136 978 q 1224 1116 1185 1079 q 1305 1174 1263 1154 z "}}}
